<?xml version="1.0" encoding="UTF-8" standalone="no"?>
<!-- Creator: CorelDRAW 2019 (64-Bit) -->

<svg
   xmlns:dc="http://purl.org/dc/elements/1.1/"
   xmlns:cc="http://creativecommons.org/ns#"
   xmlns:rdf="http://www.w3.org/1999/02/22-rdf-syntax-ns#"
   xmlns:svg="http://www.w3.org/2000/svg"
   xmlns="http://www.w3.org/2000/svg"
   xmlns:sodipodi="http://sodipodi.sourceforge.net/DTD/sodipodi-0.dtd"
   xmlns:inkscape="http://www.inkscape.org/namespaces/inkscape"
   xml:space="preserve"
   width="793.34546"
   height="485.92984"
   version="1.1"
   style="clip-rule:evenodd;fill-rule:evenodd;image-rendering:optimizeQuality;shape-rendering:geometricPrecision;text-rendering:geometricPrecision"
   viewBox="0 0 793.34549 485.92986"
   id="svg51"
   sodipodi:docname="Синий круг.svg"
   inkscape:version="0.92.5 (2060ec1f9f, 2020-04-08)"><metadata
   id="metadata55"><rdf:RDF><cc:Work
       rdf:about=""><dc:format>image/svg+xml</dc:format><dc:type
         rdf:resource="http://purl.org/dc/dcmitype/StillImage" /><dc:title></dc:title></cc:Work></rdf:RDF></metadata><sodipodi:namedview
   pagecolor="#ffffff"
   bordercolor="#666666"
   borderopacity="1"
   objecttolerance="10"
   gridtolerance="10"
   guidetolerance="10"
   inkscape:pageopacity="0"
   inkscape:pageshadow="2"
   inkscape:window-width="1920"
   inkscape:window-height="954"
   id="namedview53"
   showgrid="false"
   fit-margin-top="0"
   fit-margin-left="0"
   fit-margin-right="0"
   fit-margin-bottom="0"
   inkscape:zoom="0.56520643"
   inkscape:cx="236.06521"
   inkscape:cy="81.391929"
   inkscape:window-x="0"
   inkscape:window-y="27"
   inkscape:window-maximized="1"
   inkscape:current-layer="Слой_x0020_1" />
 <defs
   id="defs4">
  <style
   type="text/css"
   id="style2">
   <![CDATA[
    .fil2 {fill:#FEFEFE}
    .fil1 {fill:#7396C5}
    .fil0 {fill:#39404A}
    .fil3 {fill:#FEFEFE;fill-rule:nonzero}
    .fil4 {fill:#7396C5;fill-rule:nonzero}
   ]]>
  </style>
 </defs>
 <g
   id="Слой_x0020_1"
   transform="translate(-192.84,-335.75017)">
  <metadata
   id="CorelCorpID_0Corel-Layer" />
  
  <g
   id="_2352006811440">
   <polygon
   class="fil1"
   points="493.82,335.84 578.13,335.84 578.13,420.14 493.82,420.14 "
   id="polygon9"
   style="fill:#7396c5" />
   <polygon
   class="fil2"
   points="493.79,436.19 578.09,436.19 578.09,520.49 493.79,520.49 "
   id="polygon11"
   style="fill:#fefefe" />
   <polygon
   class="fil1"
   points="493.76,536.58 578.07,536.58 578.07,620.88 493.76,620.88 "
   id="polygon13"
   style="fill:#7396c5" />
   <polygon
   class="fil1"
   points="493.77,636.93 578.07,636.93 578.07,721.24 493.77,721.24 "
   id="polygon15"
   style="fill:#7396c5" />
   <polygon
   class="fil2"
   points="493.77,737.31 578.07,737.31 578.07,821.62 493.77,821.62 "
   id="polygon17"
   style="fill:#fefefe" />
   <polygon
   class="fil2"
   points="393.49,436.25 477.8,436.25 477.8,520.55 393.49,520.55 "
   id="polygon19"
   style="fill:#fefefe" />
   <polygon
   class="fil1"
   points="393.47,536.64 477.77,536.64 477.77,620.94 393.47,620.94 "
   id="polygon21"
   style="fill:#7396c5" />
   <polygon
   class="fil1"
   points="393.48,636.99 477.78,636.99 477.78,721.3 393.48,721.3 "
   id="polygon23"
   style="fill:#7396c5" />
   <polygon
   class="fil2"
   points="393.48,737.37 477.78,737.37 477.78,821.68 393.48,821.68 "
   id="polygon25"
   style="fill:#fefefe" />
   <polygon
   class="fil1"
   points="293.17,436.17 377.48,436.17 377.48,520.47 293.17,520.47 "
   id="polygon27"
   style="fill:#7396c5" />
   <polygon
   class="fil2"
   points="293.15,536.56 377.45,536.56 377.45,620.86 293.15,620.86 "
   id="polygon29"
   style="fill:#fefefe" />
   <polygon
   class="fil2"
   points="293.15,636.91 377.46,636.91 377.46,721.22 293.15,721.22 "
   id="polygon31"
   style="fill:#fefefe" />
   <polygon
   class="fil1"
   points="293.15,737.29 377.46,737.29 377.46,821.6 293.15,821.6 "
   id="polygon33"
   style="fill:#7396c5" />
   <polygon
   class="fil1"
   points="192.84,536.68 277.15,536.68 277.15,620.98 192.84,620.98 "
   id="polygon35"
   style="fill:#7396c5" />
   <polygon
   class="fil1"
   points="192.85,637.03 277.15,637.03 277.15,721.33 192.85,721.33 "
   id="polygon37"
   style="fill:#7396c5" />
   <polygon
   class="fil1"
   points="395.22,336.77 479.52,336.77 479.52,421.08 395.22,421.08 "
   id="polygon39"
   style="fill:#7396c5" />
   <g
   id="g47">
    <path
   class="fil1"
   d="m 593.9,336.11 c 97.33,-6 264.82,62.85 271.33,220.44 145.04,-5.5 187.73,264.43 -30.95,264.55 L 593.9,821.08 Z"
   id="path41"
   inkscape:connector-curvature="0"
   style="fill:#7396c5" />
    <path
   class="fil3"
   d="m 593.9,437.36 c 245.57,-1.2 255.75,382.04 0,383.73 z"
   id="path43"
   inkscape:connector-curvature="0"
   style="fill:#fefefe;fill-rule:nonzero" />
    <path
   class="fil4"
   d="m 593.9,520.88 c 138.07,-0.68 143.8,214.81 0,215.75 z"
   id="path45"
   inkscape:connector-curvature="0"
   style="fill:#7396c5;fill-rule:nonzero" />
   </g>
  </g>
 </g>
</svg>